<svg version="1.2" xmlns="http://www.w3.org/2000/svg" viewBox="0 0 32 32" width="25" height="25"><style>.a{fill:#fff}</style><path class="a" d="m0 3c0-1.7 1.3-3 3-3h26c1.7 0 3 1.3 3 3v26c0 1.7-1.3 3-3 3h-26c-1.7 0-3-1.3-3-3z"/><path fill-rule="evenodd" d="m29 22.7c-0.9 0.2-1.5 0-2.1-0.8l-3.7-5.2-0.5-0.7-4.4 5.9c-0.5 0.7-1 1-1.9 0.8l5.5-7.5-5.2-6.8c0.9-0.1 1.6 0 2.1 0.8l3.9 5.2 3.9-5.2c0.5-0.7 1-1 1.9-0.7l-2 2.6-2.7 3.6c-0.4 0.4-0.3 0.7 0 1.1zm-26-7.6l0.5-2.3c1.2-4.4 6.3-6.3 9.8-3.5 2.1 1.6 2.6 3.9 2.5 6.4h-11.6c-0.2 4.6 3.1 7.4 7.4 6 1.4-0.5 2.3-1.7 2.8-3.1 0.2-0.7 0.5-0.9 1.2-0.7-0.3 1.9-1.1 3.4-2.8 4.3-2.5 1.5-6 1-7.9-1-1.1-1.1-1.6-2.6-1.8-4.1q0-0.4-0.1-0.8 0-0.6 0-1.2zm1.2-0.4h10.5c-0.1-3.3-2.2-5.7-5-5.7-3.1 0-5.4 2.3-5.5 5.7z"/></svg>