<svg version="1.2" xmlns="http://www.w3.org/2000/svg" viewBox="0 0 28 28" width="25" height="25"><style>.a{fill:#fff}.b{fill:none;stroke:#000;stroke-linecap:round;stroke-linejoin:round;stroke-width:1.5}</style><path class="a" d="m0 3c0-1.7 1.3-3 3-3h22c1.7 0 3 1.3 3 3v22c0 1.7-1.3 3-3 3h-22c-1.7 0-3-1.3-3-3z"/><path class="b" d="m11.9 14.9q0.7 0.9 1.6 1.4 1 0.5 2.1 0.6 1.1 0.1 2.1-0.3 1-0.4 1.8-1.1l3-3c0.9-1 1.4-2.2 1.4-3.5 0-1.4-0.6-2.6-1.5-3.5-0.9-1-2.2-1.5-3.5-1.5-1.3 0-2.5 0.5-3.5 1.4l-1.7 1.7"/><path class="b" d="m15.9 12.9q-0.6-0.8-1.6-1.4-0.9-0.5-2-0.6-1.1 0-2.1 0.3-1 0.4-1.8 1.2l-3 3c-0.9 0.9-1.4 2.2-1.4 3.5 0 1.3 0.5 2.6 1.5 3.5 0.9 0.9 2.1 1.5 3.5 1.5 1.3 0 2.5-0.5 3.5-1.4l1.7-1.7"/></svg>