<svg version="1.2" xmlns="http://www.w3.org/2000/svg" viewBox="0 0 28 28" width="25" height="25"><style>.a{fill:#fff}.b{fill:#00684a}</style><path class="a" d="m0 3c0-1.7 1.3-3 3-3h22c1.7 0 3 1.3 3 3v22c0 1.7-1.3 3-3 3h-22c-1.7 0-3-1.3-3-3z"/><path fill-rule="evenodd" class="b" d="m14.1 20.9l-0.1 0.1c-0.1 0.9-0.2 2.2-0.2 2.2h-0.6c0 0-0.2-1.3-0.2-2.2l-0.1-0.1c0 0-8-5.9-1.1-14.8 0.8-0.9 1.5-1.9 1.7-2.1q0 0 0 0c0.2 0.2 0.9 1.2 1.7 2.1 6.9 8.9-1.1 14.8-1.1 14.8zm-0.1-0.6l-0.5-9.6c0 0 0 0 0 0l-0.5 9.6c0.1 0.2 0.5 0.5 0.5 0.5 0 0 0.4-0.3 0.5-0.5z"/></svg>